<?xml version="1.0" encoding="UTF-8" standalone="no"?>
<svg version="1.1" xmlns="http://www.w3.org/2000/svg" xmlns:xlink="http://www.w3.org/1999/xlink" width="944.672" height="847.596">
	<g id="dp_dp001" transform="matrix(1,0,0,1,-102.527,-38.4027)">
		<path id="dp_path002" fill="white" stroke="none" stroke-width="0" d="M 921.828,40.0693 C 888.699,42.648 863.324,46.8733 822.48,56.992 C 785.493,66.0067 782.74,66.5693 758.645,66.5693 L 733.444,66.5693 L 732.34,82.212 C 729.587,122.145 722.589,148.82 706.228,183.209 C 697.039,202.516 694.093,204.727 701.245,186.892 C 708.612,169.057 714.873,142.016 716.153,123.425 L 717.257,106.676 L 703.087,104.467 C 679.728,101.152 639.059,102.257 614.788,107.22 L 609.652,108.324 L 616.088,115.128 C 629.871,129.299 649.216,157.62 660.789,180.611 L 672.924,204.513 L 662.263,205.987 C 616.999,211.86 585.924,219.227 561.441,230.081 C 555.723,232.66 551.128,234.133 550.953,233.396 C 550.023,228.065 552.233,221.804 556.828,215.911 L 562.352,209.107 L 553.9,209.107 C 542.851,209.107 536.977,212.421 526.489,224.015 C 516.564,235.064 505.884,256.213 498.343,279.94 C 493.748,294.847 492.081,297.6 481.963,307.893 L 470.564,319.485 L 477.736,325.921 C 484.735,332.183 487.661,333.093 498.711,332.357 C 511.776,331.427 524.823,322.044 531.84,308.611 C 539.749,292.967 585.556,251.773 606.336,241.267 C 616.456,236.285 641.831,230.411 647.724,231.884 C 650.108,232.427 656.369,236.479 661.7,240.724 C 675.328,251.385 683.78,254.157 729.199,262.435 C 762.328,268.503 771.323,270.887 782.179,276.219 C 799.839,284.864 816.199,297.193 823.759,307.312 C 828.16,313.379 832.211,316.5 839.015,318.904 C 853.535,324.235 859.989,335.091 875.265,379.249 C 880.596,394.505 880.984,433.508 875.808,439.033 C 872.687,442.541 872.687,442.891 877.824,449.52 C 882.805,456.149 883.155,457.972 884.085,477.473 C 885.016,498.08 885.016,498.255 888.485,494.396 C 890.328,492.38 894.553,483.735 898.061,475.437 C 901.377,466.987 906.708,457.041 910.023,452.991 L 915.896,445.817 L 910.372,441.029 C 905.235,436.629 904.497,434.768 902.656,418.776 C 897.675,379.424 887.749,347.032 867.511,305.644 C 848.747,267.185 834.383,247.683 814.144,232.621 L 807.708,228.027 L 814.339,220.66 C 818.021,216.609 830.719,198.581 842.679,180.553 C 874.877,131.973 906.883,100.337 941.097,83.0467 C 964.456,71.28 1011.74,56.9347 1038.22,53.4253 C 1044.09,52.6893 1047.6,51.4093 1047.23,50.1107 C 1046.3,47.3587 1015.23,42.396 983.937,39.992 C 955.307,37.86 951.429,37.86 921.828,40.0693 Z M 955.868,58.292 C 954.395,59.2227 946.855,60.1333 939.313,60.1333 C 923.864,60.1333 892.033,64.3787 876.757,68.236 C 871.233,69.7093 853.011,77.076 836.281,84.616 C 801.331,100.435 785.687,106.133 776.499,106.133 C 770.973,106.133 770.063,106.676 770.063,110.379 C 770.063,118.483 757.191,138.895 749.456,143.12 C 746.704,144.593 746.879,143.663 750.193,136.123 C 754.593,125.809 756.455,107.781 753.876,98.5933 L 752.035,91.9627 L 767.136,91.0333 C 778.728,90.296 787.741,88.0867 806.875,81.2827 C 842.931,68.5853 859.485,64.3587 885.791,61.044 C 922.739,56.644 960.811,54.976 955.868,58.292 Z M 701.983,115.128 C 701.983,116.059 697,119.916 690.933,123.58 C 681.183,129.455 679.884,130.947 679.884,136.277 C 679.884,143.819 685.757,150.255 692.581,150.255 C 700.296,150.255 700.684,152.271 694.248,158.9 C 688.529,164.773 688.18,165.897 688.18,178.769 C 688.18,186.679 687.444,192.397 686.339,192.009 C 685.408,191.816 681.939,183.364 678.429,173.245 C 671.432,152.096 666.837,143.431 653.947,128.175 L 644.932,117.319 L 650.807,115.477 C 658.753,113.287 701.983,112.937 701.983,115.128 Z M 835.196,139.787 C 856.54,147.695 855.065,148.432 818.816,148.432 C 794.72,148.625 783.671,149.363 778.34,151.184 C 767.116,155.236 765.468,154.693 769.888,148.607 C 772.099,145.66 773.745,141.608 773.745,139.592 C 773.745,134.611 777.797,133.873 802.261,134.456 C 818.623,134.999 824.884,135.909 835.196,139.787 Z M 742.477,170.317 C 743.408,172.333 744.319,176.753 744.319,180.068 C 744.319,192.94 749.651,195.169 781.48,194.588 C 796,194.393 806.856,194.956 806.856,195.867 C 806.856,196.797 802.997,198.813 798.209,200.112 C 787.723,203.059 719.468,203.796 722.415,200.849 C 723.345,199.919 724.081,197.728 724.081,196.061 C 724.081,194.22 726.097,190.536 728.481,187.957 C 730.867,185.38 733.813,179.507 734.917,175.087 C 737.128,166.072 739.337,164.793 742.477,170.317 Z M 686.184,236.731 C 690.972,238.747 695.197,241.519 695.76,243.167 C 696.496,244.64 698.881,245.919 701.479,245.919 C 705.879,245.919 706.072,245.376 705.161,239.484 C 704.231,233.416 704.425,233.223 707.74,235.083 C 709.949,236.188 712.721,239.871 714.176,243.36 C 716.385,248.885 717.684,249.796 721.891,249.235 C 725.748,248.865 727.028,247.567 727.416,243.709 C 727.959,239.309 728.52,238.921 731.467,240.395 C 733.308,241.325 735.868,245.183 736.992,248.672 C 738.833,254.003 739.939,255.108 744.532,255.108 C 748.933,255.108 749.864,254.371 749.864,250.513 C 749.864,244.252 752.248,244.795 757.967,252.355 C 763.685,259.896 767.349,260.459 773.223,254.74 L 777.468,250.688 L 776.363,257.124 C 775.627,260.632 774.696,263.753 774.347,264.121 C 773.979,264.664 753.74,261.369 729.083,256.949 L 684.555,249.04 L 680.504,240.937 C 678.293,236.537 676.647,233.028 677.189,233.028 C 677.537,233.048 681.589,234.695 686.184,236.731 Z M 532.557,251.269 C 538.819,255.321 530.347,270.965 518.58,277.032 C 513.056,279.785 512.513,279.611 512.513,274.455 C 512.513,267.281 517.108,258.073 522.632,253.673 C 528.331,249.06 528.893,249.06 532.557,251.269 Z "/>
		<path id="dp_path003" fill="white" stroke="none" stroke-width="0" d="M 441.68,364.207 C 423.652,380.2 412.603,387.953 396.609,396.037 C 378.951,404.876 359.275,406.699 343.999,400.825 L 334.423,397.316 L 340.141,409.451 C 343.263,416.081 347.683,424.552 350.067,428.023 C 352.451,431.531 354.312,436.668 354.312,439.42 C 354.312,446.419 345.86,455.413 334.616,460.569 C 325.235,464.621 324.304,464.621 317.868,462.043 C 301.313,455.045 298.56,445.488 309.028,430.213 L 315.464,421.024 L 309.028,422.497 C 300.925,424.339 294.857,428.371 285.127,438.491 C 280.339,443.472 276.675,448.977 275.939,452.855 C 274.659,460.221 277.605,470.515 282.568,474.935 C 288.287,480.071 286.968,481.369 276.695,481.369 C 258.297,481.176 249.284,474.372 210.475,431.512 C 197.972,417.729 191.904,412.397 181.785,407.223 C 174.613,403.539 168.352,400.417 167.808,400.417 C 167.072,400.417 169.088,404.276 172.403,409.064 C 179.575,419.551 185.1,433.353 185.1,441.436 C 185.1,454.308 176.455,462.411 142.433,481.719 C 119.075,494.959 109.499,502.693 105.272,511.533 C 102.325,517.969 101.589,526.983 103.431,534.155 C 104.536,538.013 104.904,537.839 113.919,530.647 C 123.107,523.475 123.843,523.28 134.524,524.211 C 140.785,524.579 148.307,526.42 151.448,527.893 L 156.972,530.84 L 181.261,516.127 C 194.501,508.024 205.357,500.677 205.357,499.747 C 205.357,496.239 200.027,495.501 175.543,495.696 C 151.253,495.889 150.343,495.889 152.379,492.575 C 158.64,482.455 183.277,472.879 199.096,474.547 C 204.969,475.089 209.409,474.74 210.688,473.441 C 213.267,470.863 213.267,458.34 210.688,453.572 C 209.757,451.556 215.825,456.887 224.316,465.339 C 244.923,485.945 255.952,491.449 276.191,491.276 C 290.167,491.081 293.307,490.345 312.789,482.261 C 316.297,480.788 316.297,480.788 312.789,486.856 C 305.248,499.728 285.185,507.831 263.125,506.725 L 249.885,506.183 L 254.479,515.023 L 258.88,524.036 L 294.199,522.932 C 313.7,522.388 334.307,521.264 340.005,520.721 C 349.931,519.791 350.493,519.985 353.788,524.773 C 356.735,529.173 357.297,535.628 358.189,574.263 C 359.468,622.105 360.399,626.873 370.692,642.149 C 385.056,662.931 423.865,677.1 449.435,671.033 C 454.416,669.753 464.148,665.159 471.145,660.545 C 485.316,651.532 488.631,650.969 498.924,655.564 C 504.797,658.141 512.359,658.685 540.137,658.879 C 572.335,659.072 574.72,659.247 581.156,663.124 C 586.68,666.807 591.817,667.719 613.16,668.997 C 649.216,671.381 656.408,674.523 651.62,685.921 C 650.515,688.499 652.725,687.937 663.581,683.343 C 680.697,676.169 706.441,670.839 724.469,670.839 C 732.379,670.839 749.301,672.855 762.192,675.24 C 800.459,682.605 822.344,684.621 859.312,684.621 C 892.789,684.428 894.999,684.253 908.801,679.485 C 947.068,666.051 967.305,651.532 978.161,629.259 C 983.492,618.596 983.88,616.387 983.143,604.775 C 982.407,595.024 980.565,588.957 975.04,577.908 C 968.779,564.841 950.557,542.025 946.524,542.025 C 945.788,542.025 946.331,545.535 947.804,549.741 C 949.277,554.141 950.925,562.612 951.487,568.7 C 952.96,585.08 949.277,590.779 931.055,599.793 C 915.237,607.896 903.645,608.981 893.525,603.651 C 882.864,598.32 882.303,591.691 890.948,574.573 C 895.193,565.928 895.348,565.559 892.052,562.981 C 884.337,556.913 869.431,549.547 857.469,545.689 C 842.213,540.708 833.568,532.992 831.707,522.873 L 830.233,516.069 L 823.972,522.136 C 820.464,525.452 816.063,530.976 814.047,534.097 C 808.523,542.937 806.139,541.812 807.417,530.976 C 808.891,519.209 814.221,507.075 823.604,494.727 C 827.656,489.395 830.233,484.976 829.323,484.976 C 825.077,484.976 810.209,497.304 798.055,510.739 C 781.675,528.572 773.028,533.729 761.068,532.081 C 756.473,531.539 752.053,530.24 751.143,529.328 C 748.565,526.751 754.264,511.495 764.577,494.184 C 775.064,476.524 777.08,470.631 778.747,453.708 L 779.852,441.747 L 768.996,451.672 C 757.404,462.333 746.549,468.227 738.64,468.42 C 734.781,468.42 732.204,465.843 724.12,453.164 C 718.596,444.887 706.46,430.175 696.904,420.617 S 678.876,401.309 677.945,398.905 C 674.999,391.191 676.277,381.247 681.803,369.48 C 687.871,356.413 687.521,356.045 671.877,361.764 C 648.887,370.409 629.753,390.453 608.585,427.809 C 590.925,458.709 587.804,462.392 578.035,463.865 C 566.443,465.707 562.216,464.233 551.729,454.851 L 542.54,446.573 L 537.752,451.556 C 535.175,454.308 530.037,463.691 526.353,472.705 C 518.639,490.733 514.025,495.696 508.132,491.663 C 505.923,490.384 502.064,488.717 499.292,488.155 L 494.311,486.875 L 497.625,496.625 C 505.903,520.721 504.255,536.171 491.557,548.675 C 481.633,558.793 472.444,561.547 458.623,558.6 C 439.664,554.743 429.739,543.693 426.987,523.28 C 425.707,514.092 425.513,513.897 423.303,518.299 C 414.289,535.221 412.991,563.368 420.551,580.117 C 425.881,592.252 430.476,596.672 445.383,603.864 C 456.239,609.195 460.096,610.125 471.495,610.125 C 492.469,610.125 519.143,603.496 530.909,595.219 L 535.697,592.097 L 538.819,601.111 C 545.623,620.069 558.32,628.153 578.364,626.137 C 589.588,625.032 589.413,626.505 577.259,633.504 C 566.209,639.94 550.953,640.308 537.713,634.435 C 530.541,631.313 528.331,628.909 524.843,621.737 L 520.791,612.897 L 511.603,615.107 C 497.625,618.616 469.653,620.825 459.553,619.159 C 446.681,617.143 425.339,605.919 415.22,595.8 C 401.592,582.017 397.735,572.247 396.997,549.256 C 396.067,526.633 398.839,513.375 408.589,492.768 C 416.305,476.213 433.616,450.819 447.205,435.737 L 457.517,424.339 L 470.952,425.619 C 483.455,426.549 485.123,426.161 493.943,421.567 C 505.535,415.131 510.691,407.396 510.691,396.367 C 510.691,385.879 506.097,380.723 504.255,389.195 C 503.712,392.14 501.135,396.735 498.731,399.313 C 495.047,403.364 492.663,404.101 484.211,404.101 C 475.372,404.101 473.161,403.364 467.288,398.033 C 463.431,394.912 458.836,388.651 456.975,384.251 C 453.855,377.253 453.66,375.063 455.501,366.223 C 456.781,360.504 456.975,355.173 456.044,354.263 C 455.308,353.545 448.853,357.771 441.68,364.207 Z M 440.769,406.892 C 443.716,408.365 447.573,409.645 449.415,409.645 C 451.256,409.839 454.745,410.925 457.324,412.397 C 461.724,414.976 461.724,414.976 453.079,415.151 C 436.524,415.151 423.091,423.796 411.497,441.456 C 401.379,457.1 397.871,465.552 390.155,493.331 C 384.436,513.937 383.351,520.935 382.44,544.293 C 381.897,559.395 380.597,571.511 379.861,571.511 C 376.353,571.511 365.497,544.468 364.412,532.895 C 363.132,520.199 358.887,511.552 351.347,505.485 L 346.752,501.801 L 358.519,496.277 C 373.619,489.104 381.509,480.091 389.069,462.063 C 392.384,454.153 396.979,444.577 399.188,441.088 C 401.399,437.404 403.783,433.547 404.519,432.248 C 405.449,430.775 402.677,430.232 395.137,430.232 C 384.088,430.232 369.761,425.637 371.584,422.865 C 372.127,421.936 376.565,420.656 381.509,419.92 C 391.435,418.64 412.06,409.257 423.264,400.961 L 430.631,395.436 L 433.015,399.681 C 434.333,402.124 437.823,405.419 440.769,406.892 Z M 652.861,424.747 C 650.476,433.199 647.879,444.984 647.336,451.052 C 646.405,461.364 646.793,462.644 651.388,468.168 C 655.981,473.693 656.912,474.043 659.296,471.484 C 660.769,470.011 662.98,464.853 664.279,460.26 L 666.295,451.613 L 678.061,462.276 C 689.111,472.588 698.299,487.108 698.299,494.475 C 698.299,497.227 697.195,497.227 686.901,494.843 C 674.204,491.896 662.263,492.827 653.423,497.42 C 649.023,499.631 647.899,499.805 646.619,497.615 C 645.688,496.335 644.952,494.668 644.952,493.932 C 644.952,490.985 635.027,481.428 632.08,481.428 C 630.239,481.428 625.276,484.375 620.856,487.864 C 616.611,491.547 611.473,495.404 609.264,496.509 C 605.581,498.351 605.581,498.351 608.333,495.036 C 613.471,489.163 620.293,473.887 625.256,457.313 C 630.588,440.196 640.9,422.556 650.283,414.647 C 653.597,411.893 656.544,409.664 656.719,409.664 C 657.107,409.664 655.264,416.449 652.861,424.747 Z M 548.937,480.479 C 552.621,481.952 559.6,487.651 564.388,492.981 C 572.665,501.996 573.576,502.557 582.047,502.557 L 591.061,502.557 L 588.852,508.083 C 587.572,511.029 585.905,517.096 585.168,521.516 C 584.237,527.584 583.152,529.232 581.117,528.515 C 574.119,525.761 569.156,525.393 564.193,527.041 L 558.863,528.883 L 558.127,519.5 C 557.021,507.365 552.795,498.351 542.483,486.953 C 535.309,478.849 534.767,477.764 538.083,477.764 C 540.292,477.725 545.08,479.005 548.937,480.479 Z M 715.223,525.548 C 717.8,530.685 719.468,538.983 720.011,547.628 C 720.941,564.183 717.064,575.039 704.909,590.683 C 691.476,607.973 676.569,617.356 662.592,617.549 L 655.42,617.549 L 664.065,607.799 C 676.395,594.016 687.231,577.248 687.231,571.917 C 687.231,567.865 686.493,568.235 678.585,576.705 C 673.603,581.688 665.519,587.929 660.363,590.488 C 650.612,595.471 641.599,604.271 636.616,614.041 L 633.669,619.565 L 626.865,613.499 C 621.728,608.904 614.905,605.783 599.261,601.169 C 571.851,592.892 565.589,587.736 564.309,572.828 C 563.573,563.252 563.031,562.341 559.173,562.341 C 556.788,562.341 548.317,565.656 540.408,569.881 C 531.395,574.671 524.221,577.055 521.101,576.687 L 516.312,576.143 L 521.644,567.304 C 524.764,562.516 528.273,554.975 529.359,550.38 C 530.639,545.787 532.112,542.277 532.673,542.665 C 545.003,549.837 548.86,550.207 570.571,545.787 C 576.833,544.507 583.268,543.945 585.091,544.681 C 587.844,545.612 587.475,546.697 582.512,552.223 C 568.729,568.04 582.707,586.088 610.465,588.821 C 630.335,590.837 635.667,588.453 653.869,570.056 C 663.988,559.744 673.739,551.835 681.085,547.977 C 687.521,544.661 695.061,539.873 698.203,537.315 C 703.34,532.915 703.727,531.596 703.727,520.392 L 703.727,508.063 L 707.585,512.657 C 709.736,515.236 713.207,520.955 715.223,525.548 Z M 770.605,576.705 C 773.92,579.827 781.461,585.157 787.528,588.472 C 795.98,593.26 799.489,596.381 802.629,602.643 C 805.013,607.237 806.487,611.095 806.139,611.483 C 805.769,611.851 802.455,610.377 798.772,608.167 C 782.392,598.591 766.399,600.801 741.199,616.445 L 728.133,624.548 L 734.2,614.972 C 742.477,601.907 745.424,594.54 748.913,576.705 C 752.965,556.099 752.965,556.099 758.664,550.207 L 763.647,544.875 L 764.189,557.941 C 764.732,569.881 765.275,571.355 770.605,576.705 Z M 872.164,577.248 C 868.307,588.104 868.655,604.291 872.9,612.005 C 874.741,615.515 880.267,620.845 885.229,623.967 C 902.152,634.279 920.18,630.228 953.852,608.323 C 960.288,604.271 965.812,600.956 966.181,601.324 C 966.375,601.693 964.165,607.199 961.044,613.46 C 950.557,634.608 930.144,651.183 902.191,661.301 C 890.056,665.703 886.199,666.284 863.925,666.284 C 837.425,666.284 822.344,663.163 803.211,653.412 C 795.496,649.555 778.573,634.299 780.045,632.631 C 780.415,632.263 783.904,634.104 787.955,636.683 C 804.141,647.169 823.275,646.996 840.567,635.947 C 852.701,628.405 854.349,616.988 845.355,604.484 C 843.339,601.537 841.845,599.153 842.233,598.96 C 862.103,593.977 864.119,591.419 855.473,582.404 C 851.789,578.547 851.072,576.88 853.089,576.143 C 875.828,567.865 875.479,567.865 872.164,577.248 Z M 410.975,635.559 C 420.551,636.295 424.04,635.559 432.492,631.313 C 444.084,625.788 445.732,626.331 450.888,637.032 C 454.397,644.397 452.555,653.219 446.488,658.743 C 441.157,663.531 424.776,666.284 415.763,663.725 C 401.399,659.867 395.524,654.148 382.091,631.895 L 378.039,625.091 L 388.701,629.879 C 395.331,632.98 403.608,635.189 410.975,635.559 Z "/>
		<path id="dp_path004" fill="white" stroke="none" stroke-width="0" d="M 171.259,535.861 C 142.027,553.521 116.807,569.339 115.333,570.619 C 112.949,573.003 117.175,580.737 146.795,629.859 C 165.56,661.127 182.115,686.696 183.588,687.084 C 185.797,687.452 222.397,665.935 282.936,628.385 C 292.125,622.861 299.123,617.161 298.929,615.689 C 298.735,611.288 230.305,504.399 227.379,504.012 C 225.887,503.663 200.705,518.008 171.259,535.861 Z M 217.435,576.317 C 229.937,582.192 233.077,594.345 224.432,604.465 C 212.84,618.441 186.903,610.183 186.903,592.699 C 186.903,585.7 190.955,580.195 198.863,576.143 C 205.841,572.653 209.7,572.653 217.435,576.317 Z "/>
		<path id="dp_path005" fill="white" stroke="none" stroke-width="0" d="M 318.431,535.667 C 317.5,536.036 306.101,536.947 293.229,537.509 C 280.164,538.245 269.677,539.351 269.677,540.087 C 269.677,540.629 277.585,553.521 287.163,568.777 C 296.913,583.877 306.469,600.239 308.68,605.027 C 312.363,613.129 313.273,613.867 318.799,613.867 C 326.901,613.867 334.055,620.864 334.055,628.58 C 334.055,636.12 326.883,643.293 319.341,643.293 C 312.712,643.293 304.628,636.295 304.628,630.421 C 304.628,628.405 304.085,626.739 303.523,626.739 S 291.756,633.911 278.497,642.556 C 261.573,653.605 255.139,658.937 256.98,659.848 C 259.927,661.515 347.295,658.18 348.961,656.533 C 350.067,655.253 343.98,546.155 342.332,538.788 C 341.401,535.105 340.316,534.737 330.74,534.931 C 325.06,534.931 319.535,535.299 318.431,535.667 Z M 323.955,552.223 C 333.144,561.236 326.708,577.055 313.836,577.055 C 310.327,577.055 306.469,575.387 303.717,572.46 C 300.771,569.708 299.123,565.831 299.123,562.341 C 299.123,558.832 300.789,554.975 303.717,552.223 C 306.469,549.276 310.347,547.628 313.836,547.628 C 317.325,547.628 321.183,549.295 323.955,552.223 Z "/>
		<path id="dp_path006" fill="white" stroke="none" stroke-width="0" d="M 529.068,810.14 C 529.068,873.607 529.261,878.375 532.383,881.147 C 534.961,883.532 540.66,884.463 557.021,885.005 C 582.591,885.741 585.363,884.811 577.996,877.096 C 568.981,867.713 566.772,845.46 573.944,836.988 C 577.628,832.743 579.819,831.851 586.448,832.007 C 604.669,832.375 612.385,843.967 610.543,868.256 C 609.069,886.091 609.807,886.653 633.708,885.18 C 644.371,884.443 653.404,883.512 653.752,883.337 C 654.121,883.144 652.648,880.023 650.807,876.708 C 648.789,873.2 645.824,862.344 644.176,852.419 C 640.861,831.637 638.109,825.745 627.621,814.521 C 623.569,810.12 620.992,806.98 622.097,807.523 C 627.428,810.644 637.547,788.759 637.547,774.045 C 637.547,766.136 636.616,764.295 630.375,757.859 C 618.781,745.724 611.067,744.076 567.276,742.952 L 529.009,742.215 L 529.068,810.14 Z M 586.836,774.084 C 596.587,781.799 591.081,786.781 572.471,786.781 L 560.336,786.781 L 560.336,778.504 L 560.336,770.227 L 571.192,770.227 C 579.295,770.207 583.152,771.137 586.836,774.084 Z "/>
		<path id="dp_path007" fill="white" stroke="none" stroke-width="0" d="M 692.793,743.727 C 690.216,744.095 685.428,745.007 682.132,745.568 L 676.064,746.499 L 680.116,752.024 C 685.641,759.739 686.745,772.261 685.099,807.019 C 683.625,841.233 679.573,867.733 674.611,876.185 L 671.103,882.059 L 679.38,883.164 C 693.007,885.005 711.016,884.443 728.501,881.691 C 737.341,880.217 745.056,878.569 745.619,878.181 C 745.987,877.639 743.603,876.901 740.287,876.165 C 725.575,873.413 712.508,858.137 712.683,843.792 C 712.877,836.62 718.208,823.923 722.608,820.433 C 723.888,819.328 733.464,817.681 743.951,816.381 C 764.189,814.172 773.184,810.664 781.48,802.017 C 794.547,788.235 793.247,767.609 778.728,756.579 C 764.557,745.724 756.648,743.708 725.943,743.339 C 710.279,743.184 695.372,743.377 692.793,743.727 Z M 735.655,773.716 C 740.055,775.557 742.459,780.151 741.179,784.377 C 740.636,786.044 735.848,786.761 725.729,786.761 L 711.209,786.761 L 711.209,781.431 C 711.209,777.185 712.315,775.557 716.347,774.259 C 722.783,771.873 730.129,771.68 735.655,773.716 Z "/>
		<path id="dp_path008" fill="white" stroke="none" stroke-width="0" d="M 854.697,744.464 C 832.619,748.321 814.221,757.529 808.155,768.016 C 802.824,777.205 801.893,796.9 806.487,805.177 C 810.539,812.544 823.411,821.927 835.72,826.52 C 862.761,836.271 864.797,837.376 865.34,841.621 C 865.708,844.373 863.867,847.883 859.467,852.283 C 853.031,858.719 852.293,858.912 841.981,858.156 C 833.704,857.613 828.548,855.772 819.901,850.616 C 813.465,846.933 806.468,843.812 804.083,843.812 C 797.085,843.812 787.335,853.563 784.969,862.925 C 781.461,876.901 782.217,878.027 789.371,871.571 C 797.823,864.205 802.804,864.399 812.187,872.113 C 821.937,880.392 834.44,883.337 859.292,883.337 C 881.74,883.337 890.385,881.128 898.101,873.587 C 910.429,861.452 913.008,845.072 904.537,833.305 C 895.155,820.433 886.703,816.013 859.467,809.752 C 852.663,808.279 839.423,795.388 840.353,790.988 C 841.283,786.2 856.171,779.589 868.5,778.291 C 877.883,777.36 880.829,777.923 887.807,781.605 C 892.401,784.184 898.663,789.515 901.591,793.74 C 904.711,797.792 907.657,801.281 908.395,801.281 C 911.147,801.649 915.567,781.412 916.672,763.557 L 917.776,744.987 L 911.709,743.881 C 903.8,742.253 865.165,742.641 854.697,744.464 Z "/>
		<path id="dp_path009" fill="white" stroke="none" stroke-width="0" d="M 177.695,745.375 C 177.695,748.127 184.693,759.157 199.949,780.52 C 209.137,793.585 221.66,814.385 227.903,826.888 C 239.127,849.336 239.127,849.705 239.863,867.907 C 240.405,877.832 241.336,886.129 242.072,886.129 C 242.809,886.129 245.019,883.919 246.667,881.147 C 254.208,869.749 274.445,854.841 282.548,854.841 C 290.652,854.841 310.889,869.749 318.431,881.147 C 320.097,883.9 322.288,886.129 323.024,886.129 S 324.692,877.852 325.235,867.907 C 325.971,849.685 325.971,849.336 337.195,826.888 C 343.456,814.385 355.96,793.604 365.148,780.52 C 380.404,759.176 387.403,748.147 387.403,745.375 C 387.403,744.832 371.759,744.444 352.451,744.444 C 333.337,744.444 317.5,744.639 317.5,744.812 C 317.5,745.18 318.779,749.407 320.252,754.388 C 323.936,766.717 323.761,781.605 319.516,798.373 C 315.271,814.365 311.239,823.205 307.187,824.872 C 299.277,827.819 287.143,809.616 285.108,791.744 C 283.828,780.345 280.707,777.379 280.707,787.499 C 280.707,803.141 267.273,826.695 259.364,825.028 C 254.576,824.097 249.981,815.103 245.736,798.723 C 241.336,781.605 241.143,766.717 244.805,754.388 C 246.279,749.407 247.559,745.2 247.559,744.812 C 247.559,744.619 231.915,744.444 212.607,744.444 C 193.532,744.464 177.695,744.832 177.695,745.375 Z "/>
		<path id="dp_path010" fill="white" stroke="none" stroke-width="0" d="M 435.419,752.915 C 414.269,768.733 400.661,789.515 389.612,822.644 C 383.893,840.128 373.793,882.252 375.093,883.532 C 375.461,884.075 380.811,881.516 386.685,878.007 C 411.168,863.488 439.121,856.664 459.36,860.347 C 472.231,862.732 488.785,869.187 499.836,876.165 C 503.693,878.549 507.376,880.565 507.939,880.565 C 511.253,880.565 502.801,835.496 495.067,811.749 C 487.157,787.653 481.633,777.883 466.725,762.433 C 459.185,754.331 451.469,746.984 449.803,746.053 C 447.38,744.832 443.909,746.499 435.419,752.915 Z M 459.903,810.876 C 463.76,823.573 463.76,826.132 459.708,824.504 C 447.941,819.716 446.081,819.523 437.629,822.488 C 433.035,824.155 428.789,825.241 428.615,824.872 C 428.247,824.504 429.352,819.541 430.999,813.649 C 432.841,806.844 436.329,800.583 440.381,796.357 L 446.643,789.553 L 451.78,795.427 C 454.745,798.741 458.429,805.74 459.903,810.876 Z "/>
	</g>
</svg>