<?xml version="1.0" encoding="utf-8"?>
<!-- Generator: Adobe Illustrator 19.0.0, SVG Export Plug-In . SVG Version: 6.00 Build 0)  -->
<svg version="1.1" id="Layer_1" xmlns="http://www.w3.org/2000/svg" xmlns:xlink="http://www.w3.org/1999/xlink" x="0px" y="0px"
	 viewBox="1263.7 1444.5 2912.3 2497.7" style="enable-background:new 1263.7 1444.5 2912.3 2497.7;" xml:space="preserve">
<style type="text/css">
	.st0{fill:white;}
</style>
<g transform="translate(0.000000,4000.000000) scale(0.100000,-0.100000)">
	<path class="st0" d="M26195.1,25543.5c-126-4-254-11-284-14l-54-6l7-271c25-1023,36-1496,41-1802c7-410,8-419,38-411
		c12,3,69,6,127,6s111,4,119,9c11,7,12,103,2,607c-6,329-10,599-8,600c1,2,38-23,82-55s109-79,144-104l63-46l-31-8l-32-8l1-385
		c0-212,3-431,7-487l6-103h138h139v338c0,185-3,745-7,1245l-6,907l-131-2C26484.1,25553.5,26322.1,25548.5,26195.1,25543.5z
		 M26395.1,24933.5c3-134,5-282,3-331l-3-87l-112,80l-113,81v244v244l78,4c42,1,91,4,108,5l32,2L26395.1,24933.5z"/>
	<path class="st0" d="M26833.1,24728.5c4-454,7-1014,7-1244v-417l138-1l139-2l6,548c4,301,7,723,7,936v389l51-41c29-23,57-41,63-41
		s33,16,60,35s50,34,52,32c1-1-2-281-7-622c-4-341-8-758-8-927l-1-306l88-6c48-4,110-8,137-9l50-2l7,185c10,231,45,2272,40,2283
		c-2,4-96-56-210-132l-206-139l-61,47c-128,101-343,261-350,261C26830.1,25555.5,26830.1,25183.5,26833.1,24728.5z"/>
	<path class="st0" d="M27827.1,25329.5c-4-108-7-253-7-321c0-67-3-123-7-123s-17,10-30,22c-20,19-25,20-33,8c-5-8-10-99-10-201v-187
		l64-53c70-58,80-75,41-65c-20,5-25,2-29-16c-3-13-7-187-10-388s-11-497-18-658c-6-161-8-295-4-299c7-7,265-27,271-21
		c3,2,12,274,21,603c10,330,19,602,20,604c2,1,18-9,37-23l34-26l7,61c3,34,6,126,6,205v142l-36,23l-37,22l7,231c3,127,9,321,13,432
		l6,201l-34,6c-19,3-86,9-150,13l-116,6L27827.1,25329.5z"/>
	<path class="st0" d="M25240.1,25475.5c-151-16-310-34-352-41l-78-11v-67c0-36,16-383,34-771c19-388,45-914,57-1170s23-466,24-468
		c2-2,79,6,172,17c92,11,245,27,338,36c94,8,193,17,220,20l50,6l-3,142c-2,78-7,261-11,407s-7,267-5,269s16-6,32-18
		c17-12,33-21,36-21c8,0,6,267-3,344l-6,59l-75,48c-211,134-364,228-367,225c-2-1,0-91,4-199l6-197l66-42c63-41,65-43,37-46l-29-4
		l7-191c3-106,9-244,12-308l6-116l-107-12c-59-7-108-11-110-9c-1,2-5,73-9,158c-24,581-46,1128-51,1260c-3,85-8,189-11,231l-5,77
		l63,6c35,4,86,9,114,12l51,6l7-194c4-106,9-195,11-197c6-5,285,21,289,28c2,3-2,175-8,381l-11,375l-60,2
		C25542.1,25503.5,25391.1,25491.5,25240.1,25475.5z"/>
	<path class="st0" d="M28346.1,25388.5c-3-54-8-183-11-288c-6-208-41-1248-51-1520c-18-482-19-561-14-568c4-4,52-12,106-17
		s115-11,136-14l36-4l6,147c3,80,8,187,11,236c3,50,9,212,15,360c6,149,17,424,25,613s15,379,15,422c0,44,4,80,8,80
		c8,0,227-192,272-237c13-14,11-15-21-10l-37,5l-6-96c-6-86-20-390-56-1212c-6-129-12-256-14-282c-3-27-4-48-3-49
		c14-6,274-34,279-30c3,3,13,143,22,311c32,595,36,676,41,760c6,87,23,412,50,940c8,162,18,332,21,378c4,46,3,82-2,82
		c-5,1-72,9-149,19c-77,11-141,18-143,16c-3-2-21-297-22-353c0-21-9-15-81,48c-131,116-418,360-423,360
		C28354.1,25485.5,28350.1,25441.5,28346.1,25388.5z"/>
	<path class="st0" d="M29316.1,25237.5c-4-75-9-162-11-192s-7-98-9-150c-3-52-8-138-11-190s-14-252-25-445c-11-192-22-386-25-430
		c-2-44-9-165-15-270c-6-104-17-296-24-425c-8-129-14-236-13-237s88-15,192-33c197-32,469-82,542-98c53-12,45-53,79,418
		c14,201,28,372,30,380c4,10,13,4,34-20c16-19,31-32,33-30c6,6,13,74,28,255l11,139l-109,106c-59,58-152,147-206,199
		c-53,52-99,93-101,90c-2-2-9-91-16-197l-13-194l64-64c62-62,63-64,32-58c-39,8-36,26-59-328c-17-259-18-268-38-268
		c-25,0-187,28-192,33c-2,2,7,176,21,388c14,211,38,595,55,853c16,258,32,472,35,474c3,3,53-4,111-14l107-19l-7-115
		c-3-63-9-151-12-196l-6-80l142-28c78-15,145-25,148-21c4,3,12,79,18,168c7,89,20,256,28,370c9,114,14,211,12,216c-3,5-22,11-43,14
		c-21,4-96,18-168,32c-71,13-227,41-345,60s-227,37-241,40l-27,4L29316.1,25237.5z"/>
	<path class="st0" d="M23975.1,25299.5c-284-52-665-131-673-139c-2-2,8-141,22-309s26-312,26-321c0-14-3-14-31,0c-17,9-33,14-36,12
		c-2-3,2-84,11-180c9-97,16-184,16-195c0-14,17-27,65-48c35-16,65-32,65-36s-12-11-26-14c-25-6-26-9-20-58c3-28,29-332,57-676
		s54-628,57-631c8-7,264,49,273,59c3,4-7,167-22,362s-35,447-43,560c-9,113-16,220-16,238v33l133-70c72-38,190-101,262-139
		c71-39,131-69,133-68c2,3-36,614-91,1460c-7,101-16,180-22,182C24110.1,25322.5,24047.1,25312.5,23975.1,25299.5z M23854.1,24853.5
		c3-24,12-151,21-283c8-132,18-262,21-288l6-48l-109,57c-59,31-113,62-119,68c-9,9-45,396-44,472c0,19,11,24,98,42
		c53,11,102,20,109,21S23851.1,24877.5,23854.1,24853.5z"/>
	<path class="st0" d="M22805.1,25045.5c-351-90-483-125-490-131c-2-3,7-103,20-224c14-121,43-393,65-605c23-212,48-443,55-515
		c8-71,37-348,66-615c28-267,52-486,54-488s29,4,61,13c33,9,205,54,384,100l325,83l-3,63c-3,54-35,434-147,1709c-8,91-24,278-35,415
		c-22,260-24,275-37,275C23119.1,25124.5,22976.1,25089.5,22805.1,25045.5z M22874.1,24638.5c3-21,12-112,21-203
		c16-180,71-765,110-1174c14-143,25-268,25-277c0-13-23-22-102-42c-57-14-104-24-106-22c-3,2-15,109-28,237s-50,503-84,834
		c-33,330-60,607-60,616c0,11,27,23,93,41C22867.1,24682.5,22867.1,24682.5,22874.1,24638.5z"/>
	<path class="st0" d="M30886.1,24873.5c-9-101-25-271-36-378c-43-451-44-477-29-498c8-11,88-100,179-199c90-98,205-222,254-276
		l90-99l-36,7l-36,7l-6-44c-6-44-40-361-52-481c-8-79,6-76-142-37l-82,23l5,31c16,103,56,559,49,566c-18,16-276,77-279,66
		c-4-10-13-112-61-626c-8-91-19-201-24-245s-7-82-4-86c2-4,34-15,71-24c64-17,200-54,408-110c50-14,135-38,190-54s101-29,102-28
		s18,144,37,317c20,173,47,414,62,535c14,121,28,252,31,292l6,72l-199,221c-109,122-214,240-233,262l-34,40l23,240l24,239l26-6
		c74-18,177-47,187-53c8-5,6-51-8-172c-27-239-28-226,29-243c137-43,233-70,237-66c2,3,9,45,15,95c5,49,23,208,40,353
		c38,333,38,318-2,329c-18,5-87,25-153,45c-235,68-603,167-624,167C30907.1,25055.5,30896.1,24973.5,30886.1,24873.5z"/>
	<path class="st0" d="M22140.1,24865.5c-14-5-95-29-180-55c-234-71-610-196-610-204c2-33,48-352,51-356c3-2,60,14,128,36
		c67,23,124,40,126,38c1-2,15-98,29-214c14-115,64-518,110-895c47-377,92-743,101-815c9-71,18-131,20-133s65,15,141,39l136,43l-6,61
		c-4,33-22,193-41,355s-60,509-90,770s-66,567-80,680c-13,112-20,207-15,210c4,3,63,21,129,40c113,33,121,37,121,60
		c-1,38-36,340-41,344C22167.1,24871.5,22154.1,24869.5,22140.1,24865.5z"/>
	<path class="st0" d="M31866.1,24768.5c-2-10-8-47-11-83c-4-36-22-193-40-350c-73-619-106-898-141-1195c-19-170-49-418-64-550
		c-16-131-27-242-24-246c2-4,16-10,31-13c42-10,334-106,545-180c184-64,188-65,193-43c13,57,325,2365,323,2386c-3,27,10,21-383,155
		c-181,61-411,136-418,136C31874.1,24785.5,31869.1,24777.5,31866.1,24768.5z M32333.1,24246.5c4-4-13-165-38-357s-52-398-60-459
		c-8-60-21-162-29-225c-9-63-27-205-41-315c-35-269-43-326-48-331c-4-5-189,56-200,66c-6,6,173,1508,198,1666l5,31l103-35
		C32279.1,24268.5,32328.1,24250.5,32333.1,24246.5z"/>
	<path class="st0" d="M21070.1,24514.5c-58-21-127-47-155-58c-27-11-93-36-145-56c-162-62-324-127-351-141l-26-13l14-83
		c7-46,26-173,43-283s32-213,35-228c5-28,4-29-33-22l-38,6l29-188c16-103,33-193,38-200c6-6,33-17,62-23c70-17,74-21,43-37
		c-14-7-26-18-26-22c0-10,16-117,115-746c36-231,70-454,77-495c6-41,13-77,14-78c3-5,68,16,109,34c28,12,92,37,310,121
		c50,19,146,55,215,80s127,47,128,48c6,5-79,629-86,637c-4,4-71,29-150,56c-116,40-145,47-149,36c-4-12,33-311,53-430l6-31l-108-42
		c-59-23-108-40-108-39c-6,9-115,802-112,806c2,2,67-17,143-42c154-51,167-54,159-28c-2,9-15,94-27,187c-12,94-25,173-29,178
		c-3,4-71,27-150,52s-147,48-152,53c-4,4-21,100-38,212c-16,113-32,219-35,236c-4,24-1,33,12,37c10,3,60,21,111,40
		c62,24,94,32,96,24c2-7,14-88,26-182c13-93,26-173,29-177c4-4,67,14,141,41c120,44,135,52,138,74c2,14-17,178-42,365
		s-46,345-46,351C21210.1,24561.5,21182.1,24556.5,21070.1,24514.5z"/>
	<path class="st0" d="M32825.1,24443.5c-2-7-22-143-44-303c-48-343-172-1227-242-1718c-27-192-49-358-49-368c0-20,4-22,110-63
		c135-51,249-97,370-147c69-28,147-60,174-71c27-10,62-26,77-34c35-18,25-56,89,346c27,173,67,426,90,562c22,136,40,256,40,266
		c0,15-182,265-229,315c-17,17-18,13-35-80c-9-54-45-284-80-511s-66-415-69-418c-5-5-186,64-200,76c-6,6,81,623,178,1260
		c8,52,23,155,35,228c11,73,20,143,20,157c0,36,13,38,77,12c32-13,80-32,106-41c44-17,48-20,43-45c-4-14-15-84-25-156
		c-11-71-23-148-26-170l-7-41l49-21c196-88,234-102,239-89c12,31,122,741,116,747c-12,10-234,101-492,203c-135,53-255,101-268,106
		C32841.1,24458.5,32830.1,24458.5,32825.1,24443.5z"/>
	<path class="st0" d="M33795.1,24042.5c-2-12-26-152-52-311l-47-289l-28,33c-15,19-29,32-32,29c-2-2-18-88-35-192l-30-187l45-65
		c25-35,49-67,55-70c19-12,8-25-16-19c-20,5-25,2-29-18c-3-12-41-241-85-508s-94-550-110-630s-28-147-26-151c7-10,265-122,271-117
		c4,5,52,275,159,898c20,113,38,218,41,234c7,33,5,34,50-28c7-11,16-17,19-14s21,87,39,187c35,198,37,178-17,254
		c-18,25-17,33,47,404c37,208,67,395,69,416l2,39l-110,50C33790.1,24071.5,33801.1,24067.5,33795.1,24042.5z"/>
	<path class="st0" d="M19655.1,23930.5c-27-13-89-42-137-64c-71-32-88-44-88-62c0-19,27-176,115-659c40-220,76-421,85-475
		c5-27,38-216,75-420c36-203,84-468,105-589c22-120,41-220,43-222s51,18,108,45c158,74,245,113,424,191c66,29,139,61,162,71
		c23,11,47,19,52,19c6,0,11,8,11,18c0,26-96,621-101,626c-7,7-304,85-307,81c-2-2,13-103,33-224s35-227,33-236s-39-32-83-51
		c-134-60-113-91-174,263c-53,311-93,542-221,1285c-38,224-70,412-70,417C19720.1,23959.5,19712.1,23958.5,19655.1,23930.5z"/>
	<path class="st0" d="M34306.1,23723.5c-37-214-87-484-92-498c-4-11-12-6-34,20l-28,35l-7-35c-3-19-19-107-34-195l-29-160l47-65
		c67-93,67-92,35-80c-15,6-28,9-30,8c-1-2-23-118-49-258c-25-140-57-316-70-390c-33-180-115-653-115-662c0-4,114-64,253-133
		c138-68,307-154,374-189c118-62,123-64,128-43c3,12,32,152,64,310l58,288l-111,166c-61,91-115,165-121,165c-11-1-17-31-66-281
		c-16-85-31-156-33-158c-8-8-206,98-206,110c0,7,16,95,35,197c20,102,47,244,60,315c40,216,48,250,54,257c3,4,56-65,116-152
		c61-88,113-160,116-160c4,0,23,84,43,186l36,186l-113,162c-62,88-116,166-120,172c-4,7,11,107,33,224s40,222,40,233
		c0,26,22,20,133-38c56-30,87-52,87-63c0-9-14-88-32-177c-17-89-29-168-25-177c5-14,73-52,230-130c22-11,41-17,44-14
		c6,5,143,691,143,713c0,6-28,27-63,47c-63,35-723,366-730,366C34325.1,23825.5,34316.1,23779.5,34306.1,23723.5z"/>
	<path class="st0" d="M19015.1,23622.5c-351-179-516-268-522-285c-3-7,1-48,10-90c83-405,210-1026,217-1062c5-25,50-245,100-490
		s103-503,117-575c14-71,27-131,28-133c2-2,84,39,182,91s266,138,373,192c107,53,196,98,198,100c1,1-27,164-63,361
		c-37,197-86,466-109,597c-24,131-45,240-48,242c-2,2-34,10-71,17c-42,8-66,17-63,24c2,6,27,42,55,80c47,66,50,71,41,109
		c-5,22-45,243-90,490c-45,248-85,453-89,457C19278.1,23750.5,19158.1,23694.5,19015.1,23622.5z M19119.1,22950.5
		c29-154,55-292,58-306l5-26l-123,26l-123,26l-46,233l-46,234l31,16c139,72,180,91,185,84
		C19064.1,23233.5,19090.1,23104.5,19119.1,22950.5z M19165.1,22250.5c66-14,131-28,145-31l25-6l-32-16c-18-9-33-23-33-31
		c0-9,24-141,54-294l53-278l-104-53c-84-43-104-50-107-37c-3,9-37,180-76,381s-73,373-76,383c-5,15-2,18,13,14
		C19037.1,22279.5,19099.1,22265.5,19165.1,22250.5z"/>
	<path class="st0" d="M35265.1,23333.5c-3-7-20-86-38-176l-34-163l26-18c14-10,70-42,124-71c53-29,97-59,97-65s-36-182-80-391
		c-45-208-85-399-90-424s-61-292-125-595c-63-302-117-556-118-564c-1-9,48-43,127-88c71-40,132-73,136-73s22,66,39,148
		c18,81,48,217,67,302c18,85,51,236,73,335s87,401,145,670c59,270,110,498,114,507c6,14,24,6,122-52c63-38,120-69,125-70
		c6,0,25,69,43,153c19,83,36,162,39,174c4,18-14,32-139,106c-78,47-237,137-353,202c-115,64-229,128-253,142
		C35281.1,23340.5,35269.1,23343.5,35265.1,23333.5z"/>
	<path class="st0" d="M18245.1,23213.5c-119-67-291-167-507-296c-125-74-178-111-178-123c0-16,514-2272,525-2306c3-8,52,16,137,68
		c73,44,134,81,135,82c1,2-54,254-123,562c-68,308-124,564-124,569c0,9,49,5,208-21c56-9,102-19,102-22s-13-13-29-23l-30-16l15-64
		c8-34,37-166,64-293c91-425,121-559,125-563c2-3,63,28,135,68c85,47,130,78,130,89c0,9-12,70-25,136c-14,66-30,143-36,170
		c-5,28-32,156-59,285s-88,422-135,650c-48,228-109,523-136,655c-28,132-60,286-71,343c-12,56-24,102-27,102
		S18295.1,23242.5,18245.1,23213.5z M18173.1,22568.5c21-98,51-238,67-311l28-134l-31,6c-18,3-68,10-113,16c-44,7-86,15-93,19
		c-15,10-115,451-104,462c10,9,196,118,203,119C18133.1,22745.5,18153.1,22665.5,18173.1,22568.5z"/>
	<path class="st0" d="M36166.1,22678.5c-16-70-54-240-86-378c-32-137-70-303-85-368l-26-117l99-158c107-171,152-247,152-257
		c0-3-13,3-30,15l-29,21l-10-38c-6-21-37-153-70-293s-87-369-121-509c-33-139-60-256-60-260c0-3,12-13,28-22c15-9,74-46,131-83
		s105-65,107-63c3,3,86,337,215,867c27,113,54,221,59,241l10,36l140,8c77,4,142,10,144,14c8,12,248,972,245,975
		c-11,9-279,185-280,183c0-1-44-179-97-396c-96-391-98-395-125-402c-16-4-44-9-64-11c-35-3-37-1-79,72l-43,75l94,395
		c52,217,95,397,95,401c0,7-243,163-271,174C36197.1,22804.5,36189.1,22781.5,36166.1,22678.5z"/>
	<path class="st0" d="M17280.1,22638.5c-184-116-634-414-641-424c-4-8,74-336,83-344c2-2,58,32,123,76c104,68,121,77,127,62
		c4-10,114-448,244-973s238-956,239-958c5-6,265,169,265,178c0,4-63,269-139,587c-77,318-181,749-231,958s-93,387-96,396
		c-3,12,26,36,112,90c65,41,121,77,126,80c8,5-64,346-74,354C17416.1,22722.5,17354.1,22684.5,17280.1,22638.5z"/>
	<path class="st0" d="M26380.1,21738.5c-234-90-675-260-980-377c-2442-941-4773-1839-6205-2391c-1187-458-1179-455-1205-455
		c-11,0-20-1-21-2c0-2-7-185-14-408c-26-778-18-1485,25-2089c5-80,17-265,26-411c17-289,60-673,99-870c35-183,67-417,60-448
		c-5-25-3-27,32-28c21-1,74-11,118-24c120-34,276-33,415,3c124,32,302,117,445,212c97,65,274,208,434,351c140,124,163,117,136-46
		c-9-61-15-127-12-146c18-112,150-290,251-339c72-35,180-44,258-21c67,19,128,81,155,157c22,62,38,83,58,76c8-4,20-18,25-32
		c16-41,12-176-6-229c-33-96-181-218-306-252c-52-14-256-12-315,2c-54,14-105-33-279-256c-235-300-415-613-503-875
		c-57-169-66-237-65-475c1-174,4-221,24-312l23-108h124c83,0,123,4,123,11c0,6-6,37-14,68c-36,144-25,371,27,549
		c24,80,53,130,68,115c4-5,15-44,24-88c29-139,69-220,149-300c60-59,84-75,151-102c138-54,251-66,360-38c102,26,227,128,293,237
		c88,148,93,296,16,539c-27,84-44,154-40,164c9,23,67,14,132-20c66-35,93-33,136,13c47,49,76,103,133,241c25,63,62,144,82,180
		c37,68,108,151,129,151c6,0,56-37,110-83c148-123,224-150,352-123c89,19,117,33,163,83c48,50,80,101,174,268
		c134,240,246,426,320,530c77,110,278,323,367,390c62,47,185,110,291,151c110,42,126,20,74-100c-44-100-77-224-77-286
		c0-121,28-162,305-445c165-168,270-291,377-443c75-106,118-150,162-166c10-4,44,1,75,10c113,33,201,90,358,231c51,46,98,83,105,83
		c19,0,3-247-23-340c-21-81-31-101-181-390c-48-91-101-207-119-258c-50-147-30-177,132-189c159-13,277,65,523,341
		c105,118,298,286,329,286c20,0,2-45-46-116c-30-44-73-115-96-159c-88-168-136-412-84-432c19-8,47,21,102,101c56,85,144,176,169,176
		c14,0,24-17,41-72c43-131,139-209,351-282c150-52,395-169,453-216c45-38,46-56,6-140c-17-36-37-81-44-100l-12-35h428h428l11,48
		c5,26,10,66,10,87c0,62-29,213-56,297c-41,125-19,135,78,36c103-105,215-256,273-368l35-66l2,1243c1,684,1,1253,0,1265
		c0,12-17,62-37,110c-21,48-48,115-60,148c-13,33-39,94-58,135s-50,109-69,150c-77,168-188,332-270,401c-51,42-83,60-170,92
		c-141,54-192,91-329,242c-95,105-225,205-429,332c-253,157-496,245-820,298c-186,30-546,85-630,95c-47,6-134,20-195,31
		c-60,11-146,26-190,34c-187,32-344,81-463,146c-71,38-130,75-142,89c-14,15-159,106-212,133c-56,28-66,29-137,24
		c-154-13-476-103-634-178c-67-32-184-112-291-199c-37-30-83-67-102-81c-136-106-588-543-666-645c-12-16-47-58-78-94
		c-72-83-142-185-181-263c-40-80-128-196-182-239c-67-54-166-118-213-139c-117-50-340-62-416-23c-72,37-228,167-228,189
		c0,7,46,62,103,124c216,237,261,305,312,476c126,418,179,562,282,772c135,274,264,442,435,560c57,41,136,61,253,65
		c112,4,116-5,47-105c-81-118-123-264-87-301c13-12,26-15,48-10c37,8,154,57,199,83c89,53,599,231,768,269c47,11,148,35,225,55
		c77,19,217,49,310,67c94,17,236,45,317,61s158,29,170,29c13,0,40,5,61,11c49,13,48,32-7,128c-49,87-88,156-161,291
		c-100,183-287,475-405,630c-35,47-86,114-114,150c-68,91-220,262-321,364c-47,48-85,93-85,101c0,9,10,20,23,25c30,12,156,39,236,50
		c36,5,93,14,126,20c58,10,117,17,330,39c179,19,496,29,671,21c176-8,433-37,456-51c25-16,15-358-17-564c-9-55-20-131-25-170
		c-14-107-75-384-109-495c-11-36-40-124-64-196c-58-171-63-194-43-194c25,0,43,34,151,285c7,17,24,57,38,90c13,33,34,85,47,115
		c42,105,121,346,160,490c49,184,87,398,115,648c17,144,32,410,34,587c2,81,6,114,16,124c16,16,28,17,325,26c250,7,360,13,465,26
		c98,12,394,79,530,119c55,16,159,45,230,65c72,19,164,45,205,58c41,14,109,33,150,42c41,10,158,39,260,66c102,26,208,51,235,54
		c28,4,86,15,130,25s99,21,123,25s45,12,48,18c2,7,3,339,2,738l-3,726L26380.1,21738.5z"/>
	<path class="st0" d="M27180.1,16920.5v-4975h1423l1422,1l-76,72c-82,78-665,645-1394,1357c-121,119-358,349-527,513
		c-168,164-313,313-322,332c-18,38-21,114-6,165c6,19,33,134,60,255s72,321,100,445s69,304,90,400c22,96,64,285,95,420
		s92,407,136,605c44,198,93,416,109,485s36,159,45,200s29,131,45,200s48,207,70,308c41,190,63,247,104,280c34,26,54,33,251,87
		c167,46,550,154,855,240c85,24,198,56,250,70c204,57,342,95,500,140c91,26,219,62,285,80s158,44,205,58s162,46,255,72
		c94,26,305,85,470,132c283,79,381,107,654,183c129,36,179,36,235-2c18-13,156-138,306-278c151-140,279-259,285-265c6-5,40-37,75-70
		c36-33,126-116,200-185s173-161,220-206c47-44,211-197,365-339s316-293,360-335c44-41,138-129,209-195c72-66,202-187,290-270
		c89-82,186-173,216-201c30-27,93-86,140-130c47-43,124-115,173-158c65-60,90-89,99-118c14-46,11-64-56-355c-25-112-66-292-90-400
		c-25-109-70-310-102-448c-31-137-78-347-105-465c-26-118-91-406-144-640c-52-234-115-513-139-620c-25-107-74-328-111-490
		s-75-313-84-336c-25-55-59-74-236-127c-289-87-361-109-455-137c-52-15-174-51-270-80s-227-67-290-86c-220-66-346-104-440-133
		l-95-30h1240l1241-1l127,573c131,585,172,809,313,1687c67,420,104,711,119,935c3,44,21,262,40,485c93,1104,94,1107,100,1685
		c6,478,4,577-14,864c-11,178-24,328-29,333c-4,4-100,44-213,87c-290,112-2076,798-3684,1416c-753,289-1386,532-1405,540
		s-181,70-360,139c-179,68-514,197-745,286c-231,88-436,167-455,175s-125,49-235,90c-110,42-227,87-260,100s-208,80-390,150
		c-181,70-483,185-670,257s-344,134-349,139c-6,5-14,9-18,9S27180.1,19656.5,27180.1,16920.5z"/>
	<path class="st0" d="M26655.1,20114.5c-49-11-137-28-195-39c-114-22-159-34-320-85c-58-18-132-41-165-50c-33-8-87-26-120-39
		s-116-45-185-71s-199-76-290-112c-174-67-214-81-400-136c-131-39-223-55-396-66c-67-5-127-12-134-16c-14-9-9-50,15-135
		c52-178,30-453-55-692c-42-119-12-132,84-35c129,129,260,373,281,522c12,79,15,81,173,100c29,3,106,24,170,47
		c207,72,297,113,868,394c104,52,194,94,199,94s45,18,90,39c133,66,334,146,438,176l97,28v49c0,48,0,48-32,47
		C26760.1,20134.5,26705.1,20125.5,26655.1,20114.5z"/>
	<path class="st0" d="M23100.1,19064.5c-30-4-95-8-145-8c-195-3-395-54-395-102c0-4,52-65,117-135c264-292,367-465,508-849
		c18-49,53-134,78-187c36-76,50-98,66-98c11,0,23,6,28,13c4,6,8,104,9,217c1,216,6,247,52,301c11,13,38,46,61,72
		c76,90,65,127-39,132c-81,4-163,45-202,100c-37,53-58,127-49,168c18,77,37,96,211,215c112,76,150,111,150,137c0,18-7,25-27,28
		C23483.1,19076.5,23165.1,19073.5,23100.1,19064.5z"/>
	<path class="st0" d="M26760.1,18912.5c-31-34-71-82-90-107s-37-47-40-50c-46-42-299-405-475-680c-43-67-49-77-180-290
		c-134-218-325-503-367-550c-13-14-37-43-54-65c-39-50-33-73,28-111c271-170,545-464,765-819c142-229,232-391,414-744
		c27-52,50-95,52-97c1-1,2,803,2,1787s0,1789,0,1789S26790.1,18947.5,26760.1,18912.5z"/>
	<path class="st0" d="M25059.1,18771.5c-2-2-29-6-61-10c-69-7-134-32-143-54c-4-9-13-45-20-79c-8-34-25-79-39-100s-31-53-37-72
		c-10-29-10-36,5-47c19-14,40-9,145,31c95,36,254,58,497,70c76,4,166,10,199,15c33,4,107,8,165,9c138,2,370,18,393,26
		c9,4,17,18,17,31c0,31-36,49-205,104c-223,72-284,80-619,80C25195.1,18775.5,25061.1,18773.5,25059.1,18771.5z"/>
	<path class="st0" d="M32280.1,18553.5c-41-29-146-102-232-162c-86-61-233-164-325-228c-92-65-184-128-203-142
		c-58-40-407-284-520-362c-58-40-123-86-145-102s-197-139-389-273c-193-134-355-247-360-251c-16-12,7-23,72-37c31-7,140-33,242-57
		c102-25,248-60,325-79s214-52,305-74c1751-425,2613-631,2617-627c5,4-49,110-147,291c-18,33-125,233-238,445
		c-112,212-219,412-237,445s-122,229-232,435c-110,206-211,395-225,420s-69,127-122,228c-54,100-101,182-104,182
		C32358.1,18605.5,32321.1,18582.5,32280.1,18553.5z"/>
	<path class="st0" d="M31465.1,18460.5c-38-13-146-44-240-70c-93-26-231-64-305-85s-218-61-320-90c-321-89-501-140-625-175
		c-66-19-203-57-305-85c-102-29-221-62-265-75s-141-40-215-61c-74-20-141-40-148-43c-12-7,626-583,653-589c8-2,37,14,67,34
		c126,90,319,224,413,289c55,39,210,147,343,240c134,94,289,202,345,241s194,135,307,214s244,170,293,204c48,33,87,63,87,68
		C31550.1,18488.5,31546.1,18487.5,31465.1,18460.5z"/>
	<path class="st0" d="M24223.1,18133.5c-14-17-53-132-53-155c0-26-65-158-104-212c-50-69-64-101-71-168c-7-57-6-62,16-74
		c43-23,456-14,914,20c307,23,545,77,545,125c0,33-38,39-224,33c-553-19-619-20-694-3c-140,30-177,74-193,234c-13,127-49,206-95,210
		C24247.1,18145.5,24228.1,18140.5,24223.1,18133.5z"/>
	<path class="st0" d="M33050.1,18072.5c0-4,173-330,320-602c59-110,186-346,281-525c295-556,449-843,452-846c2-2,91,22,198,52
		c107,31,239,68,294,84c55,15,132,37,170,48c39,12,89,26,113,32c23,6,42,14,42,19c0,8-167,164-905,850c-437,406-563,524-787,734
		C33078.1,18059.5,33050.1,18083.5,33050.1,18072.5z"/>
	<path class="st0" d="M28743.1,17383.5c-17-79-54-242-82-363c-27-121-93-411-146-645c-53-234-118-524-146-645
		c-100-447-129-580-126-588c2-8,98,134,842,1243c186,278,345,513,353,522s12,21,11,26c-6,13-657,592-667,592
		C28777.1,17525.5,28760.1,17461.5,28743.1,17383.5z"/>
	<path class="st0" d="M15810.1,17425.5c-96-32-323-106-505-165c-181-59-494-160-695-225s-494-161-652-212c-159-51-288-95-288-98
		c1-3,49-28,108-57s321-158,582-286c652-322,1092-538,1366-673l231-113l719-35c395-20,760-38,809-42l91-6l18,98c10,55,32,167,48,249
		l29,150l-12,195c-6,107-15,393-18,635l-6,440l-95,12c-52,6-117,14-145,17c-64,7-503,61-660,81c-102,13-504,61-670,81
		c-27,3-57,7-65,9C15992.1,17481.5,15906.1,17457.5,15810.1,17425.5z"/>
	<path class="st0" d="M23206.1,16919.5c-4-10,15-55,46-113c29-53,58-105,63-116c21-39,48-45,467-100c103-13,247-34,320-45
		s167-25,208-30s165-21,275-35c110-15,229-30,265-35c98-14,118,8,135,152c6,50,5,59-11,65c-12,4-25-2-43-24c-38-45-99-83-134-83
		c-43,0-84,29-160,114c-37,41-76,78-88,81c-31,10-49-12-49-62c0-61-32-93-94-93c-59,0-104,38-130,111c-24,67-101,149-139,149
		c-27,0-33-13-52-103c-11-55-112-87-163-51c-12,8-38,46-56,82c-59,116-135,177-173,139c-13-12-13-23-3-72c15-75,8-102-30-110
		c-45-10-87,3-117,36c-39,42-91,71-210,118C23217.1,16940.5,23214.1,16941.5,23206.1,16919.5z"/>
	<path class="st0" d="M29950.1,16694.5c0-4,24-79,54-166c103-299,254-738,346-1003c51-146,114-328,140-405
		c147-432,638-1846,643-1851s2519,2509,2525,2526c4,11,32,3-488,129c-373,90-462,112-620,150c-91,22-248,60-350,84
		c-102,25-234,57-295,72c-60,15-173,42-250,60c-139,33-390,93-685,165c-85,21-231,56-325,79c-212,51-469,113-597,144
		C29994.1,16691.5,29950.1,16699.5,29950.1,16694.5z"/>
	<path class="st0" d="M20515.1,16518.5c-131-95-214-250-218-406c-3-101,21-116,108-71c150,78,306,313,280,419c-12,44-46,73-95,81
		C20562.1,16546.5,20547.1,16541.5,20515.1,16518.5z"/>
	<path class="st0" d="M29520.1,16395.5c-57-85-176-263-265-395s-291-433-450-670c-159-236-366-546-462-687c-95-142-173-261-173-265
		s26-18,58-30c31-12,134-53,227-92c368-155,467-196,710-297c77-32,187-77,245-101c58-25,182-76,275-115c677-280,959-398,1043-435
		c17-7,15,4-12,83c-23,67-181,524-789,2284c-157,454-289,836-295,850C29624.1,16547.5,29615.1,16538.5,29520.1,16395.5z"/>
	<path class="st0" d="M37596.1,16096.5c-4-5-17-51-30-103c-64-243-97-369-115-438c-12-41-43-160-70-265c-27-104-59-226-71-270
		c-20-74-34-127-112-420c-16-60-43-163-59-229l-30-118l31-197c17-108,38-236,46-286c24-154,85-537,94-595c4-30,27-172,49-315
		c23-143,52-327,64-410l23-149l74-12c41-6,100-14,130-18s82-11,115-16c165-26,437-62,440-58c7,7,14,119,30,463c8,182,17,377,20,435
		c2,58,7,169,11,248l7,143l96-6c53-3,258-12,456-20s407-17,465-20c152-7,302-13,590-25c140-6,291-12,335-15c44-2,103-4,130-4
		c45-1,53-4,68-31c26-43,169-154,252-194c163-80,277-107,449-107c391,0,676,235,676,558c0,139-33,236-127,376
		c-103,152-302,281-525,339c-122,32-342,32-451,0c-90-26-180-69-226-108c-31-26-35-27-79-16c-58,15-502,121-677,163
		c-71,17-220,53-330,79c-110,27-240,58-290,70c-49,12-155,37-235,56s-201,48-270,65c-69,16-154,37-188,45l-64,17l6,106
		c3,58,8,160,11,226s14,306,25,533s18,417,15,422c-4,7-36,13-135,26c-19,2-64,9-100,14s-135,19-220,30s-182,25-216,30
		C37609.1,16107.5,37603.1,16107.5,37596.1,16096.5z"/>
	<path class="st0" d="M34890.1,15961.5c-184-52-579-165-652-187c-38-11-68-21-68-23s9-62,19-132c11-71,29-205,40-299
		c32-259,114-826,151-1045c11-63,33-207,50-320c31-212,60-383,65-378c2,2,15,55,30,118c55,243,217,962,251,1115c19,88,44,194,54,235
		s35,147,54,235s62,281,95,428c34,148,61,273,61,278C35040.1,16000.5,35014.1,15996.5,34890.1,15961.5z"/>
	<path class="st0" d="M32652.1,14280.5c-667-667-1177-1187-1170-1189c20-7,191-24,408-41c107-9,308-27,445-40c138-14,331-31,430-40
		c256-21,383-33,605-55c223-22,788-72,840-74c26-1,34,3,33,14c-2,8-18,123-38,255c-19,132-42,276-50,320s-32,199-54,345
		c-23,146-43,276-45,290c-3,14-17,104-31,200c-15,96-42,270-60,385c-19,116-44,275-55,355c-12,80-34,216-49,303l-27,158
		L32652.1,14280.5z"/>
	<path class="st0" d="M36175.1,15038.5c-36-308-85-679-131-972c-30-195-53-355-52-356c4-3,173-21,518-55c162-17,304-31,315-33
		c25-3,26-9-25,223c-11,52-25,115-30,140s-16,77-25,115c-8,39-22,104-31,145l-15,75l105,319c58,176,105,320,103,322
		s-567,104-602,109c-11,1-32,5-47,9C36176.1,15097.5,36182.1,15101.5,36175.1,15038.5z"/>
	<path class="st0" d="M19353.1,14297.5c-159-124-427-256-573-282c-123-22-162-56-108-94c32-22,147-45,273-54c133-9,136-13,76-118
		c-42-73-114-228-154-331c-66-170-198-333-325-403c-34-19-69-39-77-45c-14-10,1-84,85-405c36-135,50-199,50-221c0-29,92-257,125-309
		c14-23,33-44,41-47c36-13,41,24,54,379c9,248,25,395,60,538c104,433,183,642,318,842c139,205,319,327,483,328c161,0,169,49,14,86
		c-125,29-206,79-241,145C19435.1,14345.5,19411.1,14343.5,19353.1,14297.5z"/>
	<path class="st0" d="M22366.1,14134.5c-133-124-219-285-326-609c-72-215-124-340-179-430c-16-27-27-50-24-53c11-12,62,18,148,88
		c115,93,153,112,193,96c40-17,126-106,154-161c30-58,59-62,152-20c61,28,82,32,190,37c80,4,147,1,196-8c41-7,98-13,125-13
		c47-1,50,1,53,26c5,40-69,190-132,267c-73,91-273,281-295,281c-17,0-29-26-46-95c-26-106-60-165-95-165c-24,0-88,73-112,126
		c-17,40-18,54-9,156c11,117,47,303,82,421c21,71,22,108,2,114C22437.1,14194.5,22402.1,14168.5,22366.1,14134.5z"/>
	<path class="st0" d="M18194.1,14150.5c3-16,10-66,16-110c7-44,24-129,40-190c15-60,36-152,45-204l18-94l29,34c34,40,57,82,69,122
		c11,40-11,101-78,217c-30,52-75,131-99,175C18203.1,14155.5,18191.1,14171.5,18194.1,14150.5z"/>
	<path class="st0" d="M28680.1,13734.5c176-173,513-502,860-839c190-184,440-428,555-541c116-113,257-251,315-307l105-101l70-1h71
		l38,158c21,86,66,272,101,412c34,140,66,274,69,296c7,41,7,42-31,57c-107,45-231,99-254,112c-14,8-59,28-100,44s-121,50-179,76
		s-181,80-275,120c-93,41-260,113-370,161c-294,127-493,212-680,289c-44,18-141,59-215,90s-144,59-155,62
		S28628.1,13785.5,28680.1,13734.5z"/>
	<path class="st0" d="M18355.1,13370.5c10-73,27-93,22-27c-2,29-10,59-17,65C18350.1,13418.5,18349.1,13410.5,18355.1,13370.5z"/>
	<path class="st0" d="M20874.1,13250.5c-4-9,21-46,66-97c157-180,211-290,224-457c7-93,19-108,71-91c38,12,204,10,235-4
		c32-14,51,18,70,114c11,52,28,121,39,152c27,79,18,88-92,88c-108,1-142,17-241,119c-87,90-189,163-251,180
		C20937.1,13270.5,20881.1,13268.5,20874.1,13250.5z"/>
	<path class="st0" d="M23126.1,12853.5c-3-13-6-71-6-130s-5-119-11-135c-20-55-87-109-253-207c-120-72-200-137-376-306l-135-130h218
		h218l46,50c25,28,52,50,60,50c22,0,25-25,9-64l-15-36h193h193l26,58c43,98,58,163,64,277c10,208-63,436-181,563
		C23140.1,12881.5,23134.1,12882.5,23126.1,12853.5z"/>
	<path class="st0" d="M31147.1,12453.5c-83-340-117-483-117-498c0-6,111-10,290-10c312,0,288-3,495,60c39,11,122,36,185,54
		c126,37,442,132,670,201c126,38,534,160,842,251c54,16,98,32,98,35s-33,9-72,12c-40,4-167,16-283,26c-115,11-246,23-290,26
		s-125,11-180,16c-437,42-650,61-940,84c-33,3-152,14-265,24c-113,11-239,22-281,25l-76,7L31147.1,12453.5z"/>
	<path class="st0" d="M16207.1,12638.5c-3-4-8-87-11-183c-4-96-8-220-11-275c-9-175-14-324-20-535c-3-113-8-224-11-247l-5-43h-67
		c-63,0-430,13-732,25c-74,3-274,10-445,15c-414,13-584,19-742,26l-131,6l-32,39c-47,59-164,143-263,189c-388,182-824,100-1022-192
		c-106-158-104-395,4-578c63-105,116-166,197-226c197-146,374-206,604-206c184,1,350,50,443,132l37,32l397-92c219-50,423-98,453-105
		c30-8,85-21,123-30c147-33,205-46,262-60c33-8,89-21,125-29c213-49,718-167,731-172c13-3,16-16,14-57c-2-28-6-144-9-257
		c-4-113-9-225-11-250c-6-56-18-454-19-615l-1-120l55-7c30-4,196-25,369-48s320-39,327-36c6,2,19,33,27,68c14,58,176,701,297,1173
		c161,630,156,606,143,671c-11,53-79,469-88,538c-3,15-7,35-9,45c-3,9-19,102-36,206c-16,105-32,202-35,216s-23,136-45,270
		s-44,267-49,294c-6,28-20,111-32,186l-21,136l-92,12c-50,7-107,15-126,17c-19,3-66,9-105,14c-38,5-137,19-220,30
		c-82,11-164,23-182,25C16226.1,12643.5,16209.1,12642.5,16207.1,12638.5z"/>
	<path class="st0" d="M23870.1,12353.5c-68-70-88-123-120-321c-5-36-12-72-15-79c-4-10,33-13,188-13h194l-67,62c-77,71-86,94-95,239
		C23943.1,12416.5,23939.1,12422.5,23870.1,12353.5z"/>
	<path class="st0" d="M20804.1,12350.5c-7-19-14-42-14-52c0-27-61-161-114-252c-26-44-45-85-41-91c3-5,37-10,75-10c65,0,76,4,218,75
		c165,82,243,115,272,115s48-37,55-106c4-34,10-66,14-72c3-6,60-12,133-14l127-3l-29,30c-38,40-50,74-50,146c0,67,13,98,73,177
		c32,43,39,57,30,70c-20,32-101,28-318-18c-132-28-236-24-319,14C20838.1,12394.5,20822.1,12393.5,20804.1,12350.5z"/>
	<path class="st0" d="M25284.1,12082.5c-141-50-171-79-126-120c15-14,40-17,124-17h105l16,60c19,67,21,100,8,100c-5,0-15,2-23,4
		C25381.1,12112.5,25334.1,12099.5,25284.1,12082.5z"/>
	<path class="st0" d="M18823.1,11558.5c2-10,46-146,96-303s91-291,91-299c0-22,241-746,375-1126c123-352,336-899,497-1280
		c133-317,123-298,212-382c174-164,346-266,547-323c97-28,116-30,271-30c93,0,168,2,168,5c0,6-73,281-115,430
		c-35,125-152,557-180,660c-11,43-122,444-201,725c-121,430-146,579-110,649c27,50,64,63,471,165c431,107,803,201,930,235
		c66,18,190,50,275,72c85,23,189,50,230,61s98,26,125,33c66,17,416,109,530,139c50,13,211,56,359,96c266,70,482,122,563,135
		c53,8,100-13,131-59c43-63,104-252,214-661c28-104,57-210,64-235c26-95,87-317,99-365c7-27,39-142,70-255s66-239,77-280
		s33-123,49-183c16-59,29-110,29-112c0-3-98-4-217-3l-217,3l-53,195c-73,264-151,550-173,635c-22,81-219,802-227,827
		c-3,9-11,19-19,22c-12,5-141-26-429-103c-190-51-347-92-440-116c-49-13-151-39-225-59c-193-51-384-102-540-143
		c-74-19-184-48-245-64c-60-16-202-53-315-83c-113-29-305-80-427-112c-164-43-224-62-228-75c-3-9,45-200,106-425s115-422,119-439
		c32-122,123-454,156-570c14-49,32-112,39-140c14-57,119-442,142-525c8-30,18-65,20-78c3-12,8-24,12-26c11-7,221-29,226-24
		c2,2-5,33-16,68c-77,244,102,504,361,526c110,9,203-13,283-68l27-19v-294v-295l23-4c60-13,181-26,186-20c3,3,6,245,6,537
		c0,512,1,533,20,571c11,22,33,49,48,60l28,21l1782-1c1409,0,1790-3,1819-13c63-21,89-75,104-216c4-33,9-449,13-925l6-865l155-41
		c85-22,167-44,183-48l27-6v2420v2420h-3996C19013.1,11575.5,18818.1,11574.5,18823.1,11558.5z M23520.1,10369.5
		c138-65,220-179,245-340c8-50-16-167-45-225c-47-92-176-191-278-214c-43-9-159-9-201,0c-18,4-60,21-93,38c-249,127-303,462-105,654
		c97,94,173,123,317,120C23442.1,10400.5,23464.1,10395.5,23520.1,10369.5z M21835.1,9955.5c200-69,309-241,284-449
		c-26-222-257-392-478-353c-125,22-224,84-287,179c-124,187-87,413,91,556C21549.1,9971.5,21708.1,9999.5,21835.1,9955.5z"/>
	<path class="st0" d="M27182.1,9108.5l3-2468l73-19c40-10,74-17,76-15c1,2,76,315,165,694c90,380,207,877,262,1105
		c54,228,150,638,214,910s129,551,145,620c110,463,135,573,164,728c34,175,63,260,99,286c48,36,127,33,367-13c118-23,252-49,297-57
		s97-21,115-28c18-8,128-35,243-60c211-46,494-108,875-192c113-25,306-67,430-94s308-67,410-89c102-23,232-50,290-62
		c160-33,669-159,726-180c79-30,98-56,102-143c3-62-4-107-57-320c-34-136-61-257-61-268c0-10-153-668-339-1461
		c-187-793-387-1646-446-1894c-58-249-108-458-110-465c-4-9,79-35,292-91c164-43,308-81,319-84c19-4,29,10,79,109
		c32,62,207,403,390,758s466,905,630,1223c188,366,299,592,302,617c6,43-17,121-45,153c-30,35-260,166-597,342
		c-187,97-342,179-344,181c-3,3,67,259,126,457c17,57,13,58,127-17c44-29,142-86,216-126c309-167,399-214,475-249
		c139-65,659-361,688-392c18-20,27-40,27-63c0-34-184-421-487-1021c-69-137-121-245-116-240c23,23,506,879,520,923
		c9,26,31,72,49,102c18,30,119,242,224,470s213,462,240,520s119,285,205,505c87,220,195,496,241,612c65,166,414,1224,414,1256
		c0,4-1805,7-4010,7h-4010L27182.1,9108.5z"/>
	<path class="st0" d="M17550.1,11218.5c0-4,11-54,24-112c52-223,116-508,122-543c4-23,0-55-9-85c-9-26-45-142-82-258
		c-36-115-75-236-87-268c-12-33-17-61-12-66c8-7,180-38,419-77c44-7,148-24,230-39c83-14,267-46,410-70s327-56,409-70s150-24,152-22
		s-12,50-32,108c-19,57-78,244-130,414c-140,455-230,725-286,855c-28,63-54,120-60,127c-9,11-45,16-193,29c-38,3-81,7-95,9
		s-59,6-100,10s-86,8-100,10s-56,6-95,9c-109,11-159,15-320,31C17539.1,11227.5,17550.1,11227.5,17550.1,11218.5z"/>
	<path class="st0" d="M28779.1,10357.5c-24-16-52-38-61-48c-34-39-36-47-257-999c-131-563-282-1215-522-2245
		c-122-523-136-590-125-590c3,0,88-22,188-49c101-27,238-63,306-80c67-17,161-42,208-57c46-15,86-25,88-23s-4,42-14,89
		c-38,172-50,295-50,489c0,204,9,311,41,511c133,820,593,1582,1079,1788c104,44,167,55,285,50c95-4,107-7,191-48
		c148-71,262-205,351-410c79-184,112-360,120-650c10-370-37-708-147-1045c-134-411-294-713-520-978c-58-68-86-109-78-112
		c7-2,210-53,450-113c379-95,438-107,442-93c3,9,203,868,446,1910c302,1301,440,1911,440,1950c0,40-7,70-26,107c-23,45-34,55-97,87
		c-66,34-163,56-1137,266c-586,127-1159,251-1275,276c-115,25-226,45-245,45C28837.1,10385.5,28807.1,10374.5,28779.1,10357.5z"/>
	<path class="st0" d="M34867.1,9748.5c-3-5-50-116-105-248c-267-639-440-1018-575-1258c-49-87-87-160-85-161c1-1,86-17,188-35
		s244-43,315-56c72-13,236-42,365-65s298-53,375-66c698-125,820-145,855-141c19,2,190,45,380,96c332,90,457,123,715,191
		c66,17,305,81,530,141c226,60,471,125,545,145c74,19,143,38,154,42c15,6-5,22-97,75c-64,37-118,67-120,67c-3,0-55,29-116,65
		c-62,36-114,65-116,65s-58,32-124,70c-66,39-122,70-125,70s-43,22-88,49c-46,27-164,93-263,148s-254,142-345,193
		c-91,52-190,107-220,123s-95,53-145,82c-49,29-95,54-100,56c-12,5-268,149-340,192c-47,28-61,31-330,58c-154,16-309,31-345,34
		s-81,8-100,10c-59,9-623,65-652,65C34883.1,9755.5,34869.1,9752.5,34867.1,9748.5z"/>
	<path class="st0" d="M23074.1,8437.5c-32-21-34-53-34-446v-396l23-5c57-13,271-55,284-55c9,0,6,12-13,41c-44,71-66,132-71,206
		c-14,184,93,349,272,419c38,14,75,19,155,19c98,0,110-3,172-33c108-53,186-140,222-250c27-81,19-219-16-295c-30-64-110-154-163-183
		c-19-10-35-22-35-25c0-4,19-10,43-13c23-4,122-24,221-46l178-39l42,20c68,33,164,45,246,31c93-16,161-51,235-123l60-58l240-56
		c132-31,375-90,540-131s310-77,323-79l22-5v738c0,701-1,740-18,755s-138,17-1468,17C23737.1,8445.5,23080.1,8441.5,23074.1,8437.5z
		"/>
	<path class="st0" d="M20325.1,7509.5c-447-14-453-15-875-69l-425-55l-362-95l-363-95l-279-127l-280-126l-146-136
		c-112-103-157-152-188-205c-41-68-41-70-45-185l-4-116l60-125c32-69,173-359,312-645s281-578,315-650c57-119,271-561,993-2049
		l257-530l7,70c12,111,52,223,104,295c74,102,112,135,234,209c96,58,142,78,275,120c260,82,623,152,1005,194l325,36l595-10
		c826-14,1140-43,2020-191c584-98,663-112,940-163c74-13,288-54,475-90c187-35,430-81,540-101s486-106,835-190
		c658-158,1351-340,3240-851c146-39,881-234,1640-434c504-133,1734-436,1865-459c33-6,236-38,450-71c448-70,728-95,945-85
		c169,8,255,27,350,76l75,39l460,862c253,474,487,914,521,977c34,64,203,382,376,706c552,1033,618,1158,615,1161c-2,2-45-15-96-37
		c-114-50-230-68-441-68c-157-1-648,32-745,49c-33,5-253,40-490,76c-810,123-1428,236-2065,375c-798,175-2042,461-2430,560
		c-902,230-1623,416-2535,655c-2183,573-2257,592-3130,799c-1012,241-2152,469-2803,560c-378,54-552,73-950,105
		C20873.1,7526.5,20856.1,7526.5,20325.1,7509.5z M21176.1,6765.5c203-22,389-43,413-46l44-7l-7-76c-9-94-60-561-86-776
		c-10-88-26-223-35-300c-30-263-84-710-115-944c-16-129-28-237-25-239c3-3,47,7,98,22c50,16,134,39,186,52c105,26,93,28,309-33
		c68-19,125-33,127-31c2,1,11,64,20,138s34,275,56,445c21,171,72,594,114,940c94,794,83,717,104,710c19-6,203-30,574-75
		c270-32,250-27,243-69c-3-20-39-315-81-656c-41-341-86-710-101-820c-14-110-56-443-93-740c-64-508-69-540-87-537
		c-10,2-68,18-129,37c-243,73-517,148-800,219c-77,20-159,41-181,47c-44,11-47,11-254-52c-36-11-87-26-115-34c-62-17-276-87-450-147
		c-71-25-159-54-195-66c-36-11-118-39-183-62s-120-40-122-38s11,119,30,260c100,745,270,2198,326,2791c10,106,15,127,29,127
		C20799.1,6805.5,20972.1,6787.5,21176.1,6765.5z M23820.1,6420.5c178-24,902-142,1105-180c44-9,103-20,130-25c28-4,136-24,240-43
		c105-20,210-38,235-41c133-19,470-92,470-102c0-7-22-182-49-391c-27-208-61-475-75-593c-72-605-87-740-106-910
		c-10-102-26-241-34-310s-20-181-26-250c-7-69-15-128-19-132c-3-3-49,0-101,8c-52,7-196,27-320,44s-263,37-310,44l-85,12l2,45
		c1,24,6,87,12,139c19,185,62,557,78,689l16,133l61-6c34-4,84-9,111-12l50-5l-95,47c-52,25-122,56-156,69s-115,49-181,79
		c-66,31-123,56-127,56c-5,0-67,27-140,60c-144,65-196,81-196,59c0-8-14-124-30-259c-17-135-43-362-60-505c-41-359-59-497-64-503
		c-3-2-56,1-118,7s-246,20-408,31c-162,12-298,24-301,28c-4,4,22,239,57,522s93,756,129,1050c89,722,145,1151,151,1162
		c3,5,13,7,22,4C23698.1,6438.5,23757.1,6429.5,23820.1,6420.5z M26581.1,5916.5c94-18,236-49,709-156c85-19,254-58,375-85
		s290-68,375-90s265-67,400-100s259-64,275-68c38-10,38,16-13-407c-23-187-50-416-61-509c-11-92-21-169-23-171c-2-1-88-6-193-10
		c-104-4-191-8-193-10s192-110,303-167c63-33,63-32,53-100c-5-35-17-148-28-253c-11-104-31-287-44-405s-32-290-42-382
		c-10-93-22-168-26-168c-10,0-374,92-612,154c-92,24-172,48-176,53c-4,4,3,112,17,238c44,419,80,735,84,740c3,2,47-7,99-20
		c52-14,99-25,105-25c21,0-26,31-130,85c-60,32-202,106-315,165s-217,111-230,115c-14,4-57,25-96,46c-39,22-78,39-86,39
		c-12,0-18-25-27-122c-7-68-23-215-36-328s-29-257-35-320c-30-314-46-449-52-455c-4-4-73,7-155,25c-81,17-197,40-258,50
		c-154,26-389,71-394,76c-6,5,89,910,134,1267c8,67,31,257,50,422c34,289,99,795,110,863c3,17,12,32,19,32
		C26470.1,5935.5,26523.1,5926.5,26581.1,5916.5z M29380.1,5249.5c52-14,174-45,271-69c98-25,289-74,425-111
		c428-113,504-133,669-173c275-67,815-208,823-216c10-9-210-1730-222-1743c-3-3-11,0-18,5c-7,6-38,24-68,40s-109,61-175,100
		c-103,61-226,131-580,331c-38,21-127,71-196,111c-69,39-129,71-132,71s-60,32-127,71s-125,67-130,63c-4-5-19-112-34-239
		c-15-126-38-320-52-430s-29-236-34-280c-20-162-39-297-43-302c-6-5-220,52-377,101c-63,20-181,55-262,78c-119,33-148,45-148,59
		c0,10,16,157,35,326c20,169,47,409,61,533c41,361,62,531,67,536c2,2,33-4,68-15c144-43,145-33,7,38c-191,98-270,143-275,158
		c-5,14,1,79,29,306c7,57,15,87,23,87c7,0,52-21,99-46c48-25,90-43,94-40c6,6,80,602,81,654
		C29260.1,5281.5,29264.1,5281.5,29380.1,5249.5z M32414.1,4474.5c600-148,998-241,1301-304c206-43,609-132,631-140
		c11-3,6-44-75-580c-38-251-37-247-59-241c-15,4-134,32-695,159l-98,22l7,55c4,30,17,127,29,215c13,88,20,163,17,167
		c-4,4-86,25-182,48c-96,22-247,59-334,80c-88,22-163,37-168,32c-4-4-22-125-41-270l-34-262l91-49c315-168,388-207,448-242
		c36-21,78-43,92-49c14-5,78-39,142-75c63-36,139-77,167-90c29-14,149-76,267-138c152-81,216-120,218-133c1-11-14-95-33-189
		c-20-93-50-237-66-320c-27-139-58-266-159-675c-21-85-41-167-44-181c-7-30,15-32-211,16c-159,33-498,118-700,175
		c-342,97-456,130-565,164c-63,20-187,57-275,82c-159,46-448,134-452,138c-2,1,10,76,26,167c16,90,37,214,46,274
		c10,61,35,215,56,342c22,128,39,244,39,258c0,32-11,33,160-13c186-50,492-131,559-148c40-11,76-25,78-32c5-12-2-58-74-460
		c-27-152-33-206-24-211c6-4,100-31,209-60c108-29,243-66,300-82c56-16,111-29,122-29c21,0,28,20,54,155c25,129,76,395,87,455
		c18,97,6,91,120,64c116-28,109-27,109-15c0,5-15,15-32,22c-18,7-80,41-138,75c-112,65-349,195-415,227c-41,21-205,112-405,225
		c-63,36-142,80-175,97c-33,18-106,60-163,94c-57,33-106,61-109,61s-45,23-94,51c-55,32-89,58-89,68c0,23,34,303,63,521
		c14,102,35,272,48,378c17,153,25,192,37,192C32036.1,4565.5,32210.1,4524.5,32414.1,4474.5z"/>
	<path class="st0" d="M24436.1,5914.5c-4-15-66-516-66-536c0-15,54-44,165-89c90-36,239-102,395-174c74-35,107-45,111-37
		c6,12,17,92,65,495c22,182,25,225,14,232c-7,4-43,13-79,18c-36,6-145,25-241,42s-200,35-230,40c-30,4-72,11-92,15
		C24450.1,5925.5,24439.1,5924.5,24436.1,5914.5z"/>
	<path class="st0" d="M27206.1,5353.5c-19-118-57-451-54-474c3-24,23-37,193-123c105-54,248-128,319-165c70-37,135-65,142-62
		c8,3,14,18,14,33s16,162,36,326c19,165,34,311,32,325c-3,29,4,26-203,71c-49,11-157,35-240,54c-82,19-169,38-192,42
		C27212.1,5386.5,27211.1,5386.5,27206.1,5353.5z"/>
	<path class="st0" d="M30026.1,4673.5c-11-49-57-479-54-499c2-15,30-35,98-72c164-89,238-130,333-185c129-74,215-117,222-110
		c6,5,85,643,85,685c0,24,13,20-265,92c-167,44-368,98-397,107C30036.1,4695.5,30029.1,4689.5,30026.1,4673.5z"/>
	<path class="st0" d="M33275.1,7135.5c-9-16-13-30-11-30c3,0,12,14,21,30c9,17,13,30,11,30
		C33293.1,7165.5,33284.1,7152.5,33275.1,7135.5z"/>
	<path class="st0" d="M33042.1,6193.5c-27-35-95-124-150-198c-123-163-273-350-404-503c-86-100-111-137-93-137c3,0,259-79,570-175
		l566-176l607-129c535-113,677-139,1197-220c587-90,677-100,1214-138c237-17,261-17,366-2c84,12,137,26,206,56c83,35,98,46,150,107
		c62,71,91,122,129,225c20,56,22,74,17,160c-9,133-46,262-109,380c-44,82-69,113-158,200c-91,88-120,110-214,158
		c-140,72-307,128-472,159c-117,22-174,25-565,34c-746,18-815,20-1179,46c-612,42-1101,105-1517,195c-51,11-97,20-102,20
		S33070.1,6227.5,33042.1,6193.5z"/>
	<path class="st0" d="M21310.1,2895.5c-415-28-804-84-1093-159c-227-59-228-60-360-137c-149-87-233-152-277-211c-26-35-30-49-31-114
		c-3-139,54-213,231-298c151-73,316-110,491-111c136,0,160,4,509,83c301,69,346,76,632,96c191,14,288,17,340,10c40-4,154-18,253-29
		c167-20,324-53,403-86c19-7,52-28,73-45c22-17,42-30,44-27c5,5-249,996-258,1005c-7,6-543,43-617,42
		C21614.1,2913.5,21461.1,2904.5,21310.1,2895.5z"/>
	<path class="st0" d="M24831.1,2670.5c8-7,203-158,434-336c231-177,671-515,977-751c307-235,560-428,563-428s4,241,3,537l-3,536
		l-240,64c-132,34-429,104-660,154c-347,74-995,216-1069,234C24820.1,2683.5,24819.1,2682.5,24831.1,2670.5z"/>
	<path class="st0" d="M27180.1,1599.5v-526l33,27c17,15,140,123,271,239c132,116,276,243,321,281c199,171,285,249,285,255
		c0,4-10,10-22,12c-13,3-212,58-444,122c-231,64-426,116-432,116C27183.1,2125.5,27180.1,1991.5,27180.1,1599.5z"/>
</g>
</svg>
